<svg width="21" height="22" viewBox="0 0 21 22" fill="none" xmlns="http://www.w3.org/2000/svg">
<rect width="21" height="22" fill="#EEEEEE"/>
<g id="Settlements" clip-path="url(#clip0_0_1)">
<rect width="1920" height="1080" transform="translate(-1285 -455)" fill="#0D0D0D"/>
<rect id="Rectangle 50" x="-1285" y="-455" width="1920" height="1080" rx="10" fill="url(#paint0_linear_0_1)"/>
<g id="Group">
<g id="BACKGROUND">
<g id="Group_2" style="mix-blend-mode:overlay">
<path id="Vector" d="M-344.783 300.372C-350.845 298.918 -356.925 296.886 -362.813 294.344C-363.459 294.067 -363.749 293.32 -363.473 292.674C-363.196 292.028 -362.453 291.755 -361.803 292.015C-355.507 294.741 -349.075 296.823 -342.566 298.298C-341.896 298.476 -341.46 299.119 -341.609 299.813C-341.77 300.487 -342.447 300.915 -343.124 300.77C-343.666 300.64 -344.225 300.506 -344.767 300.376L-344.783 300.372ZM-322.822 303.121C-323.381 302.987 -323.795 302.471 -323.789 301.864C-323.779 301.171 -323.207 300.596 -322.498 300.61L-322.289 300.608L-322.117 300.615C-315.679 300.648 -309.223 300.025 -303 299.433L-301.808 299.319C-301.113 299.243 -300.489 299.757 -300.429 300.449C-300.369 301.141 -300.867 301.768 -301.559 301.828L-302.75 301.942C-309.047 302.551 -315.556 303.179 -322.133 303.147L-322.306 303.141L-322.531 303.139C-322.634 303.132 -322.72 303.128 -322.818 303.105L-322.822 303.121ZM-380.604 284.638C-380.735 284.607 -380.879 284.555 -381.015 284.47C-386.817 280.628 -392.276 276.296 -397.226 271.581C-397.734 271.095 -397.75 270.292 -397.267 269.799C-396.78 269.291 -395.977 269.275 -395.485 269.758C-390.647 274.358 -385.308 278.61 -379.626 282.371C-379.04 282.755 -378.881 283.54 -379.265 284.125C-379.564 284.575 -380.115 284.773 -380.624 284.651L-380.604 284.638ZM-163.362 333.382C-164.019 333.225 -164.435 332.569 -164.31 331.904C-164.182 331.223 -163.502 330.778 -162.82 330.906C-155.627 332.354 -149.039 333.135 -142.702 333.3C-142.01 333.31 -141.455 333.895 -141.469 334.604C-141.478 335.296 -142.063 335.851 -142.772 335.837C-149.248 335.674 -155.972 334.877 -163.329 333.39C-163.329 333.39 -163.362 333.382 -163.379 333.379L-163.362 333.382ZM-183.179 328.212C-183.179 328.212 -183.228 328.2 -183.261 328.192C-190.342 325.989 -197.39 323.5 -202.731 321.575C-203.385 321.332 -203.732 320.606 -203.488 319.952C-203.261 319.294 -202.538 318.963 -201.864 319.195C-196.539 321.115 -189.525 323.597 -182.51 325.783C-181.848 325.994 -181.46 326.695 -181.675 327.374C-181.882 328.019 -182.542 328.382 -183.183 328.228L-183.179 328.212ZM-281.531 300.76C-282.106 300.623 -282.521 300.106 -282.498 299.503C-282.484 298.794 -281.904 298.256 -281.195 298.27C-274.653 298.449 -267.942 299.225 -260.634 300.631C-260.015 300.727 -259.504 301.423 -259.637 302.121C-259.765 302.803 -260.429 303.251 -261.127 303.119C-268.283 301.732 -274.879 300.984 -281.265 300.807C-281.351 300.804 -281.437 300.801 -281.535 300.777L-281.531 300.76ZM-221.872 314.603C-221.872 314.603 -221.954 314.584 -222.003 314.572C-229.766 311.806 -235.731 309.802 -241.386 308.098C-242.052 307.903 -242.435 307.186 -242.241 306.52C-242.047 305.854 -241.374 305.442 -240.663 305.665C-234.98 307.393 -228.962 309.393 -221.17 312.183C-220.512 312.41 -220.169 313.153 -220.396 313.811C-220.612 314.419 -221.268 314.765 -221.892 314.616L-221.872 314.603ZM-122.663 333.921C-123.123 333.81 -123.491 333.461 -123.598 332.966C-123.748 332.288 -123.324 331.607 -122.645 331.458C-116.479 330.088 -110.251 327.881 -103.626 324.745C-102.998 324.444 -102.246 324.711 -101.945 325.339C-101.643 325.967 -101.911 326.72 -102.539 327.021C-109.343 330.253 -115.739 332.506 -122.106 333.915C-122.306 333.954 -122.498 333.96 -122.679 333.917L-122.663 333.921ZM-410.041 256.415C-410.336 256.344 -410.592 256.179 -410.787 255.906C-414.97 249.951 -418.27 243.791 -420.612 237.617C-420.855 236.968 -420.522 236.231 -419.873 235.988C-419.22 235.727 -418.487 236.077 -418.243 236.726C-415.978 242.707 -412.77 248.672 -408.719 254.456C-408.316 255.022 -408.456 255.822 -409.022 256.225C-409.335 256.445 -409.712 256.494 -410.041 256.415ZM-85.4095 317.248C-85.7216 317.173 -86.0187 316.963 -86.21 316.674C-86.5721 316.083 -86.383 315.295 -85.7922 314.933L-83.152 313.342C-78.2627 310.415 -73.1941 307.392 -68.1076 304.512C-67.5044 304.17 -66.7197 304.375 -66.3818 304.995C-66.0401 305.598 -66.2457 306.383 -66.8654 306.721C-71.9315 309.588 -76.9799 312.599 -81.8528 315.53L-84.4928 317.121C-84.7944 317.292 -85.1342 317.332 -85.4463 317.257L-85.4095 317.248ZM-423.716 218.404C-424.275 218.27 -424.694 217.77 -424.687 217.163C-424.659 214.512 -424.367 211.993 -423.808 209.66C-423.165 206.983 -422.145 204.465 -420.802 202.198C-419.821 200.575 -418.648 199.014 -417.301 197.6C-416.814 197.092 -416.028 197.072 -415.515 197.542C-415.006 198.029 -414.987 198.816 -415.457 199.328C-416.674 200.635 -417.738 202.03 -418.63 203.501C-419.848 205.537 -420.777 207.816 -421.36 210.248C-421.876 212.4 -422.137 214.717 -422.154 217.18C-422.164 217.873 -422.737 218.448 -423.429 218.438C-423.532 218.431 -423.618 218.428 -423.716 218.404ZM-49.5052 297.507C-49.8666 297.421 -50.205 297.166 -50.3601 296.798C-50.6408 296.158 -50.357 295.409 -49.7328 295.125C-43.0699 292.119 -36.7203 289.768 -30.3615 287.958C-29.6912 287.771 -28.983 288.149 -28.7963 288.819C-28.6096 289.49 -28.9879 290.198 -29.6582 290.385C-35.9065 292.17 -42.1417 294.479 -48.6863 297.426C-48.9597 297.551 -49.2424 297.57 -49.5052 297.507ZM-10.3242 285.763C-10.7677 285.656 -11.1358 285.307 -11.2634 284.825C-11.4297 284.142 -11.0058 283.462 -10.3395 283.292C-5.31921 282.064 1.0387 280.184 5.63031 276.542C6.25255 276.049 6.82951 275.527 7.37749 274.981C7.87684 274.493 8.67597 274.493 9.16426 274.992C9.65255 275.492 9.65196 276.291 9.15257 276.779C8.5356 277.396 7.87326 277.984 7.18991 278.515C2.21197 282.463 -4.46878 284.457 -9.74662 285.745C-9.95099 285.8 -10.156 285.786 -10.3367 285.742L-10.3242 285.763ZM-399.29 189.151C-399.684 189.057 -400.019 188.785 -400.183 188.381C-400.443 187.728 -400.126 186.987 -399.477 186.743C-396.333 185.517 -393.037 184.379 -389.852 183.267C-386.633 182.163 -383.317 181.012 -380.17 179.769C-379.516 179.509 -378.78 179.842 -378.532 180.475C-378.272 181.128 -378.588 181.869 -379.238 182.113C-382.422 183.364 -385.775 184.523 -389.018 185.656C-392.179 186.739 -395.442 187.885 -398.529 189.091C-398.778 189.187 -399.044 189.21 -399.29 189.151ZM-362.71 171.518C-362.907 171.471 -363.109 171.37 -363.266 171.229C-363.779 170.758 -363.811 169.951 -363.34 169.439C-362.067 168.041 -360.971 166.515 -360.085 164.92C-358.546 162.128 -357.448 159.072 -356.407 156.108C-355.865 154.57 -355.309 153.053 -354.701 151.531C-354.441 150.881 -353.706 150.571 -353.056 150.831C-352.406 151.091 -352.096 151.826 -352.356 152.476C-352.953 153.948 -353.488 155.453 -354.022 156.958C-355.12 160.013 -356.242 163.167 -357.877 166.145C-358.86 167.925 -360.081 169.612 -361.476 171.154C-361.804 171.51 -362.27 171.641 -362.714 171.535L-362.71 171.518ZM17.0842 258.997C17.0842 258.997 17.035 258.986 17.0022 258.978C16.3404 258.767 15.9525 258.066 16.1673 257.388C17.4917 253.171 18.858 248.634 19.9694 244.001C20.5014 241.783 20.9283 239.714 21.2823 237.731C21.3946 237.046 22.0623 236.581 22.7438 236.709C23.437 236.789 23.8943 237.489 23.7656 238.171C23.4123 240.223 22.9775 242.325 22.4297 244.608C21.3025 249.307 19.9205 253.91 18.5843 258.176C18.3774 258.821 17.717 259.184 17.0763 259.03L17.0842 258.997ZM-341.554 137.138C-341.833 137.071 -342.076 136.925 -342.259 136.673C-342.682 136.12 -342.579 135.328 -342.022 134.888C-339.638 133.063 -336.99 131.439 -334.171 130.048C-330.725 128.355 -326.989 126.976 -323.387 125.651C-322.738 125.407 -322.001 125.74 -321.761 126.405C-321.518 127.055 -321.851 127.791 -322.516 128.031C-326.061 129.335 -329.74 130.694 -333.068 132.328C-335.727 133.636 -338.233 135.172 -340.49 136.906C-340.808 137.143 -341.192 137.224 -341.554 137.138ZM22.6506 218.774C22.1742 218.66 21.7811 218.271 21.6943 217.763C20.8783 212.981 19.3574 208.603 17.0387 204.363C16.1711 202.765 15.1517 201.148 14.0181 199.573C13.6152 199.007 13.7385 198.203 14.3207 197.804C14.8864 197.401 15.6869 197.541 16.0898 198.107C17.2734 199.763 18.3428 201.462 19.2563 203.158C21.6711 207.577 23.3392 212.355 24.19 217.354C24.3031 218.042 23.8506 218.697 23.1593 218.827C22.9792 218.853 22.807 218.847 22.6427 218.807L22.6506 218.774ZM-305.082 118.871C-305.312 118.815 -305.543 118.691 -305.721 118.491C-306.189 117.98 -306.168 117.168 -305.656 116.7C-305.051 116.133 -304.474 115.541 -303.984 114.947C-302.372 113.005 -301.242 110.757 -300.643 108.26C-299.989 105.533 -299.923 102.508 -300.44 99.0138C-300.537 98.3304 -300.068 97.6785 -299.364 97.5694C-298.68 97.4727 -298.029 97.9418 -297.919 98.6456C-297.358 102.463 -297.429 105.8 -298.158 108.839C-298.848 111.714 -300.151 114.32 -302.006 116.551C-302.586 117.228 -303.218 117.91 -303.909 118.544C-304.242 118.846 -304.663 118.936 -305.058 118.842L-305.082 118.871ZM0.536515 185.376C0.35579 185.333 0.182828 185.256 0.0257784 185.114C-3.45988 182.263 -7.53291 179.253 -12.4163 175.927C-13.8969 174.929 -15.2087 174.024 -16.4751 173.147C-17.0567 172.746 -17.1993 171.965 -16.7991 171.384C-16.399 170.802 -15.6013 170.663 -15.0361 171.059C-13.7698 171.937 -12.4541 172.826 -11.1096 173.739C-6.03233 177.198 -1.89739 180.24 1.64214 183.157C2.17905 183.598 2.26454 184.401 1.823 184.937C1.50302 185.33 1.00046 185.47 0.540458 185.359L0.536515 185.376ZM-32.4121 161.001C-32.6092 160.954 -32.7945 160.857 -32.9516 160.716C-36.9104 157.229 -40.4079 153.558 -43.6302 149.536C-44.7415 148.158 -45.8161 146.771 -46.8499 145.359C-47.2692 144.789 -47.1497 144.001 -46.58 143.582C-46.0103 143.163 -45.2225 143.282 -44.8032 143.852C-43.7779 145.227 -42.7159 146.594 -41.6335 147.948C-38.5065 151.86 -35.1043 155.421 -31.2446 158.814C-30.7117 159.272 -30.6793 160.079 -31.1333 160.596C-31.4454 160.955 -31.9317 161.099 -32.3753 160.993L-32.4121 161.001ZM-305.774 80.6209C-306.152 80.5303 -306.487 80.2589 -306.654 79.8712C-308.887 74.3319 -311.309 67.9134 -311.664 61.5735C-311.708 60.8856 -311.71 60.2422 -311.699 59.6193C-311.689 58.9267 -311.121 58.368 -310.408 58.3653C-309.715 58.3751 -309.14 58.9474 -309.154 59.6565C-309.169 60.2262 -309.155 60.8203 -309.113 61.4386C-308.781 67.373 -306.448 73.5793 -304.291 78.9267C-304.03 79.5799 -304.347 80.3205 -304.984 80.5847C-305.233 80.6813 -305.499 80.7043 -305.746 80.6452L-305.774 80.6209ZM-57.054 128.508C-57.399 128.425 -57.7086 128.195 -57.8716 127.86C-61.1519 121.618 -63.852 115.202 -65.8884 108.772C-66.0955 108.114 -65.7296 107.385 -65.0718 107.178C-64.414 106.971 -63.7016 107.333 -63.4781 107.995C-61.4759 114.278 -58.8304 120.559 -55.6211 126.663C-55.2997 127.278 -55.5381 128.055 -56.1537 128.376C-56.431 128.518 -56.7543 128.562 -57.0336 128.495L-57.054 128.508ZM-313.077 41.0288C-313.438 40.9421 -313.777 40.6872 -313.932 40.3199C-317.289 32.9473 -319.269 26.4263 -320.018 20.4262C-320.111 19.7263 -319.613 19.0987 -318.913 19.006C-318.217 18.9297 -317.586 19.4113 -317.493 20.1111C-316.77 25.8615 -314.854 32.1414 -311.614 39.2775C-311.334 39.9181 -311.601 40.6705 -312.242 40.9512C-312.515 41.0767 -312.798 41.0958 -313.061 41.0328L-313.077 41.0288ZM-69.2508 89.6181C-69.7601 89.4959 -70.1617 89.0695 -70.2203 88.5168C-70.4939 86.0362 -70.657 83.53 -70.7131 81.0842L-70.7428 80.1215C-70.7851 77.8354 -70.8424 75.6847 -71.4366 73.5268C-71.8271 72.1127 -72.5212 70.6605 -73.486 69.1781C-73.8685 68.5999 -73.7123 67.8035 -73.1176 67.4249C-72.5394 67.0424 -71.7428 67.1987 -71.3643 67.7934C-70.2582 69.4834 -69.4512 71.1885 -68.9969 72.8438C-68.3179 75.3 -68.2741 77.7255 -68.2108 80.0688L-68.1978 81.0274C-68.1463 83.42 -67.9797 85.8402 -67.7107 88.2676C-67.6344 88.9634 -68.1488 89.5871 -68.8447 89.6634C-68.988 89.6812 -69.1397 89.6621 -69.2712 89.6306L-69.2508 89.6181ZM-140.82 46.7705C-141.182 46.6838 -141.527 46.6011 -141.904 46.5104C-143.877 45.9678 -145.857 45.3884 -147.826 44.7598C-148.488 44.5489 -148.855 43.8353 -148.644 43.1736C-148.433 42.5118 -147.711 42.1812 -147.058 42.3553C-145.139 42.9721 -143.174 43.5476 -141.251 44.0784C-136.358 45.4085 -131.481 45.571 -127.321 45.6133C-126.624 45.6067 -126.053 46.1954 -126.063 46.888C-126.073 47.5806 -126.645 48.1556 -127.338 48.1458C-131.362 48.1186 -136.113 47.9345 -140.844 46.7994L-140.82 46.7705ZM-88.1583 56.4676C-88.2733 56.44 -88.3882 56.4124 -88.4914 56.3356C-93.5016 53.4658 -98.9986 51.1046 -103.974 49.6851C-105.002 49.404 -106.053 49.1517 -107.096 48.9363C-107.736 48.8522 -108.226 48.1439 -108.114 47.4585C-107.985 46.7771 -107.318 46.3118 -106.636 46.4405C-105.524 46.6553 -104.403 46.9068 -103.301 47.2405C-98.1282 48.7073 -92.4254 51.1526 -87.2503 54.1315C-86.6404 54.4863 -86.4406 55.2465 -86.7789 55.8603C-87.0733 56.363 -87.6488 56.5898 -88.1746 56.4637L-88.1583 56.4676ZM-166.676 37.0063C-166.774 36.9827 -166.873 36.9591 -166.947 36.9065C-173.317 33.6932 -179.228 30.0165 -184.532 25.9817C-185.089 25.5526 -185.195 24.7628 -184.766 24.2055C-184.337 23.6482 -183.547 23.5423 -182.99 23.9714C-177.802 27.909 -172.01 31.5048 -165.801 34.6623C-165.183 34.9842 -164.93 35.7399 -165.235 36.3616C-165.501 36.8886 -166.105 37.1607 -166.663 37.0267L-166.676 37.0063ZM-314.197 0.939317L-315.357 0.417684L-316.457 -0.211056C-313.237 -5.8843 -308.34 -10.5819 -301.377 -14.6968C-300.769 -15.055 -300.001 -14.8534 -299.643 -14.2462C-299.285 -13.6391 -299.487 -12.8709 -300.094 -12.5127C-306.654 -8.63109 -311.271 -4.2312 -314.197 0.939317ZM-198.863 12.0672C-199.126 12.0042 -199.369 11.859 -199.543 11.6435C-200.522 10.4358 -201.476 9.19918 -202.361 7.96191C-204.13 5.48737 -205.822 2.90965 -207.622 0.201835C-208.82 -1.61433 -210.046 -3.4548 -211.293 -5.28278C-211.692 -5.86495 -211.54 -6.64497 -210.957 -7.0439C-210.375 -7.44283 -209.595 -7.29046 -209.196 -6.70829C-207.933 -4.87636 -206.727 -3.0234 -205.513 -1.2033C-203.73 1.50057 -202.046 4.04149 -200.305 6.49171C-199.446 7.68824 -198.537 8.89662 -197.579 10.0471C-197.136 10.5879 -197.222 11.3836 -197.763 11.8273C-198.085 12.0803 -198.485 12.1579 -198.863 12.0672ZM-282.238 -20.4604C-282.649 -20.5589 -283.008 -20.871 -283.148 -21.3041C-283.371 -21.9657 -283.005 -22.6945 -282.331 -22.8977C-275.472 -25.1266 -268.433 -26.8779 -262.443 -28.3077C-261.76 -28.4741 -261.08 -28.0503 -260.914 -27.3676C-260.747 -26.6848 -261.171 -26.0047 -261.854 -25.8383C-267.786 -24.4295 -274.773 -22.6829 -281.537 -20.4835C-281.766 -20.3993 -282.008 -20.4052 -282.222 -20.4564L-282.238 -20.4604ZM-223.767 -20.35C-223.947 -20.3933 -224.133 -20.4899 -224.294 -20.6154C-229.738 -25.2226 -235.475 -27.7453 -242.066 -28.4406C-242.747 -28.4996 -243.274 -29.1298 -243.194 -29.823C-243.115 -30.5163 -242.505 -31.0302 -241.812 -30.9508C-234.691 -30.2155 -228.502 -27.4799 -222.649 -22.5488C-222.116 -22.0908 -222.046 -21.2924 -222.504 -20.7595C-222.82 -20.3836 -223.323 -20.2436 -223.767 -20.35Z" fill="white"/>
<path id="Vector_2" d="M-325.282 288.389C-332.527 286.651 -339.727 284.002 -346.661 280.532C-358.572 274.565 -369.576 266.261 -378.467 256.536C-386.38 247.879 -392.176 238.219 -395.226 228.627C-398.348 218.826 -398.409 211.115 -395.406 205.042C-390.974 196.202 -381.566 192.326 -371.582 188.223L-370.386 187.728C-361.035 183.873 -351.378 179.901 -346.645 171.254C-345.341 168.857 -344.353 166.262 -343.418 163.741C-342.451 161.159 -341.448 158.498 -340.063 155.981C-336.587 149.605 -330.831 144.296 -323.409 140.587C-322.756 140.257 -322.091 139.947 -321.43 139.654C-318.937 138.532 -316.267 137.54 -313.686 136.56C-306.925 134.013 -300.527 131.604 -296.602 127.194C-290.006 119.759 -292.733 109.254 -295.788 99.9734L-295.898 99.6344C-297.83 93.7849 -299.822 87.7475 -299.745 81.7026C-299.715 79.2601 -299.291 77.2769 -298.923 75.5236C-298.279 72.4811 -297.753 70.0707 -299.314 66.2911C-303.45 56.2297 -307.975 41.4883 -299.584 29.7585C-293.155 20.7724 -280.761 15.8231 -268.334 11.8199C-259.849 9.11242 -252.261 6.81501 -245.114 4.75948L-244.873 4.69569C-239.667 3.19957 -234.293 1.65678 -228.339 2.11223C-226.785 2.22444 -225.246 2.47201 -223.767 2.82671C-211.314 5.81404 -203.973 16.4186 -196.88 26.6854C-195.28 28.9976 -193.768 31.1673 -192.22 33.2587C-181.561 47.4909 -162.957 59.1641 -141.189 65.2547C-136.078 66.6894 -130.652 66.7401 -125.398 66.7843C-119.886 66.8382 -114.178 66.8699 -108.7 68.5141C-98.2619 71.6435 -82.1998 80.5873 -79.1655 90.6797C-78.543 92.7923 -78.4329 94.8688 -78.3275 96.8921L-78.279 97.7029C-77.2211 117.12 -68.8874 137.64 -54.7726 155.498C-47.174 165.105 -39.0756 170.817 -28.8199 178.038C-19.4014 184.693 -9.02132 192.917 -3.43014 203.431C4.80253 218.941 0.750282 234.891 -4.53592 251.205C-6.33588 256.68 -8.56142 263.495 -14.3324 268.07C-19.9162 272.516 -27.9389 274.31 -35.7 276.027C-37.6832 276.472 -39.6623 276.9 -41.5876 277.394C-58.8307 281.701 -73.4895 290.155 -87.6635 298.326C-89.5381 299.405 -91.3925 300.472 -93.2632 301.535C-101.133 306.023 -111.618 311.708 -123.149 315.961C-128.45 317.921 -133.412 319.197 -138.323 319.896C-149.31 321.447 -161.374 320.603 -175.19 317.289C-187.544 314.325 -200.176 309.696 -212.377 305.223C-224.689 300.706 -237.42 296.054 -249.987 293.039C-258.809 290.922 -266.757 289.798 -274.27 289.611C-279.762 289.475 -285.241 289.863 -290.54 290.225C-295.966 290.609 -301.585 290.998 -307.245 290.839C-313.2 290.679 -319.273 289.847 -325.302 288.401L-325.282 288.389ZM-224.272 4.92954C-225.635 4.60243 -227.059 4.38246 -228.511 4.27746C-234.075 3.86338 -239.261 5.347 -244.279 6.78397L-244.521 6.84773C-251.647 8.89078 -259.219 11.1921 -267.667 13.8911C-279.735 17.772 -291.753 22.5334 -297.818 31.0161C-305.583 41.8712 -301.245 55.8727 -297.306 65.4524C-295.494 69.8484 -296.137 72.8213 -296.804 75.9624C-297.168 77.6992 -297.565 79.4977 -297.593 81.7149C-297.67 87.395 -295.725 93.2649 -293.852 98.9264L-293.742 99.2655C-290.248 109.833 -287.977 120.715 -294.995 128.605C-299.28 133.432 -306.229 136.039 -312.934 138.565C-315.474 139.52 -318.111 140.52 -320.543 141.605C-321.188 141.902 -321.832 142.199 -322.444 142.504C-329.467 145.996 -334.906 150.998 -338.164 156.975C-339.465 159.356 -340.436 161.955 -341.387 164.472C-342.354 167.054 -343.361 169.732 -344.747 172.248C-349.854 181.587 -360.336 185.883 -369.573 189.696L-370.768 190.19C-380.352 194.146 -389.41 197.863 -393.459 205.978C-396.192 211.507 -396.091 218.69 -393.147 227.927C-390.182 237.221 -384.544 246.6 -376.854 255.029C-368.146 264.572 -357.361 272.701 -345.684 278.56C-333.241 284.777 -319.952 288.26 -307.147 288.621C-301.589 288.773 -296.024 288.388 -290.652 288.009C-285.296 287.626 -279.767 287.25 -274.172 287.393C-266.504 287.582 -258.424 288.739 -249.438 290.895C-236.755 293.937 -223.946 298.626 -211.585 303.155C-199.43 307.599 -186.864 312.212 -174.641 315.145C-161.104 318.392 -149.303 319.242 -138.598 317.71C-133.851 317.042 -129.031 315.783 -123.87 313.894C-112.494 309.709 -102.106 304.069 -94.318 299.631C-92.4473 298.568 -90.593 297.502 -88.7348 296.419C-74.4386 288.173 -59.6411 279.648 -42.0997 275.256C-40.1579 274.766 -38.1584 274.325 -36.1588 273.884C-28.6514 272.21 -20.8699 270.48 -15.6725 266.341C-10.414 262.165 -8.38735 255.962 -6.59132 250.503C-1.46473 234.637 2.4856 219.184 -5.35074 204.413C-10.725 194.297 -20.8613 186.289 -30.0734 179.788C-40.0611 172.753 -48.6831 166.688 -56.4808 156.826C-70.8572 138.609 -79.3796 117.645 -80.454 97.7892L-80.4988 96.9619C-80.5996 94.9919 -80.691 93.1283 -81.2373 91.2773C-83.7509 82.9255 -97.7722 74.0196 -109.316 70.5729C-114.485 69.02 -120.038 68.991 -125.411 68.9356C-130.804 68.8928 -136.365 68.827 -141.772 67.3214C-163.995 61.104 -183.016 49.1398 -193.949 34.5291C-195.543 32.4094 -197.051 30.2233 -198.663 27.8907C-205.527 17.9741 -212.636 7.7034 -224.268 4.91311L-224.272 4.92954Z" fill="white"/>
<path id="Vector_3" d="M-305.673 276.466C-312.31 274.874 -318.915 272.421 -325.306 269.15C-335.085 264.146 -344.457 257.224 -352.418 249.129C-359.163 242.264 -364.254 234.806 -367.554 226.908C-369.886 221.345 -372.278 214.152 -370.039 207.861C-367.449 200.542 -360.521 196.94 -353.194 193.121L-351.584 192.274C-344.481 188.592 -337.141 184.793 -333.235 177.564C-332.172 175.595 -331.319 173.489 -330.499 171.445C-329.554 169.1 -328.586 166.657 -327.255 164.37C-324.107 158.923 -319.061 154.33 -312.655 151.089C-312.1 150.805 -311.513 150.529 -310.946 150.266C-308.742 149.265 -306.387 148.354 -304.125 147.472C-298.573 145.329 -292.845 143.107 -289.278 139.393C-283.367 133.219 -284.569 124.834 -286.306 116.79C-287.356 111.899 -288.437 106.845 -287.87 101.803C-287.644 99.7729 -287.111 98.1287 -286.641 96.6778C-285.841 94.2115 -285.2 92.2631 -286.101 89.2844C-288.843 80.1481 -290.941 68.5429 -282.792 59.8477C-276.184 52.7981 -264.808 49.4812 -252.773 45.9571L-251.58 45.6179C-245.565 43.8641 -239.921 41.8475 -234.49 39.919C-233.044 39.3971 -231.619 38.8877 -230.181 38.3986L-229.576 38.1962C-225.006 36.5996 -220.285 34.9524 -214.866 35.1752C-213.32 35.2506 -211.806 35.4575 -210.344 35.8082C-200.405 38.1926 -194.224 46.538 -188.238 54.6108C-186.835 56.5111 -185.507 58.2892 -184.146 60.0054C-174.935 71.51 -159.264 81.1418 -141.18 86.4357C-136.923 87.6654 -132.459 87.8155 -128.118 87.9708C-123.498 88.1234 -118.707 88.2826 -114.14 89.7429C-104.099 92.9335 -91.9868 100.6 -89.3667 108.508C-88.7804 110.264 -88.6285 112.021 -88.4772 113.708L-88.4133 114.383C-86.8977 130.661 -79.6275 147.937 -67.924 163.028C-61.6306 171.123 -54.7014 176.277 -46.6747 182.216C-39.5063 187.532 -30.6971 194.771 -26.1495 203.697C-19.3634 217.052 -23.2482 231.218 -27.4342 243.453C-29.2762 248.814 -31.3047 253.939 -35.8838 257.601C-40.6134 261.383 -47.3593 262.997 -53.864 264.546C-55.487 264.939 -57.0898 265.318 -58.6675 265.739C-72.2295 269.331 -83.9682 275.897 -95.3404 282.238C-97.6881 283.551 -100.036 284.864 -102.413 286.153C-113.224 292.038 -123.974 297.017 -134.345 300.922C-140.077 303.092 -145.33 304.42 -150.393 305.03C-159.656 306.126 -169.715 305.329 -181.165 302.582C-192.616 299.835 -203.115 295.874 -213.811 291.936C-224.536 287.973 -235.643 283.867 -246.567 281.246C-253.122 279.673 -259.069 278.751 -264.743 278.432C-269.319 278.168 -273.89 278.322 -278.322 278.475C-282.878 278.633 -287.572 278.793 -292.316 278.506C-296.719 278.249 -301.213 277.571 -305.681 276.499L-305.673 276.466ZM-210.729 37.5575C-212.076 37.2344 -213.471 37.0387 -214.898 36.9744C-219.973 36.7647 -224.523 38.3488 -228.925 39.8987L-229.53 40.1012C-230.951 40.5941 -232.376 41.1036 -233.822 41.6255C-239.294 43.579 -244.954 45.5916 -251.023 47.3501L-252.22 47.7057C-264.009 51.1495 -275.161 54.3988 -281.42 61.0803C-288.94 69.1098 -286.918 80.0888 -284.319 88.7388C-283.257 92.2773 -284.042 94.6779 -284.865 97.2427C-285.331 98.6772 -285.813 100.177 -286.008 102.007C-286.537 106.745 -285.49 111.652 -284.474 116.396C-282.699 124.57 -281.365 133.855 -287.918 140.675C-291.764 144.686 -297.697 146.964 -303.424 149.186C-305.666 150.056 -308.001 150.955 -310.147 151.934C-310.71 152.181 -311.261 152.449 -311.795 152.72C-317.884 155.794 -322.678 160.134 -325.632 165.28C-326.886 167.464 -327.834 169.825 -328.751 172.125C-329.583 174.218 -330.468 176.386 -331.567 178.433C-335.747 186.152 -343.348 190.097 -350.687 193.896L-352.298 194.743C-359.307 198.396 -365.916 201.831 -368.275 208.475C-370.306 214.191 -368.037 220.955 -365.823 226.211C-362.607 233.88 -357.649 241.168 -351.07 247.854C-343.25 255.811 -334.039 262.607 -324.444 267.515C-313.981 272.857 -302.871 276.009 -292.166 276.649C-287.508 276.932 -282.846 276.765 -278.332 276.631C-273.867 276.486 -269.242 276.328 -264.58 276.595C-258.787 276.924 -252.738 277.854 -246.068 279.454C-235.028 282.103 -223.872 286.221 -213.102 290.212C-202.456 294.139 -191.431 298.225 -180.67 300.807C-169.909 303.388 -159.579 304.286 -150.55 303.22C-145.634 302.645 -140.54 301.33 -134.926 299.219C-124.629 295.331 -113.96 290.402 -103.227 284.55C-100.871 283.274 -98.5227 281.961 -96.175 280.648C-84.7174 274.24 -72.8605 267.616 -59.0777 263.973C-57.4836 263.556 -55.8606 263.164 -54.2375 262.771C-47.9168 261.264 -41.3917 259.702 -36.967 256.177C-32.7579 252.826 -30.9091 248.162 -29.0992 242.863C-24.8496 230.435 -21.2301 217.23 -27.7027 204.523C-32.0748 195.952 -40.6654 188.887 -47.6892 183.693C-55.8151 177.66 -62.835 172.45 -69.2901 164.16C-81.2013 148.776 -88.6182 131.169 -90.1575 114.555L-90.2211 113.88C-90.3639 112.23 -90.5062 110.649 -91.0208 109.101C-93.3747 102.039 -104.866 94.6086 -114.615 91.5054C-118.976 90.1292 -123.612 89.9726 -128.109 89.8147C-132.556 89.6686 -137.172 89.4995 -141.622 88.2061C-160.068 82.8254 -176.065 72.9591 -185.52 61.17C-186.909 59.4294 -188.25 57.631 -189.653 55.7307C-195.424 47.9181 -201.41 39.8453 -210.708 37.6147L-210.729 37.5575Z" fill="white"/>
</g>
</g>
</g>
<rect id="Rectangle 9" x="-1224" y="-65" width="1646" height="142" rx="9" fill="black" fill-opacity="0.5" stroke="#1F1F1F" stroke-width="2"/>
<g id="Group 4">
<path id="Screenshot 2024-02-09 at 18.28 1 (Traced)" fill-rule="evenodd" clip-rule="evenodd" d="M11.255 0.111341C9.85252 0.237087 9.03078 0.403779 7.85758 0.800611C6.50967 1.25653 5.61962 1.89115 5.26181 2.65137C4.84906 3.52838 5.11463 4.2837 6.10827 5.05815L6.5362 5.39169L7.34146 5.39192C9.3544 5.39261 11.1542 5.68436 12.8422 6.2837C13.8785 6.6516 14.0975 6.67288 15.1286 6.50626C17.0898 6.18933 18.6095 5.59841 19.4299 4.83375C20.6247 3.72025 20.373 2.45093 18.7443 1.37615C18.1093 0.957124 16.3096 0.417785 14.797 0.193309C14.0507 0.0825638 12.0838 0.0370258 11.255 0.111341ZM19.8208 6.20448C19.0989 6.75523 17.5296 7.42735 16.3511 7.69056C15.9337 7.78377 15.5844 7.86681 15.5749 7.87508C15.5655 7.88327 15.6424 8.0081 15.746 8.15244C16.042 8.56489 16.3281 9.2925 16.3833 9.77329C16.445 10.3102 16.4379 10.3091 17.4465 9.9386C18.7644 9.45445 19.4706 8.98843 19.9094 8.31324C20.1361 7.96455 20.1426 7.93126 20.1706 6.97978C20.1865 6.44312 20.1711 6.00565 20.1366 6.00771C20.1021 6.00978 19.96 6.09833 19.8208 6.20448ZM5.90587 6.82204C2.89699 7.23548 1.01677 8.00902 0.319936 9.12037C0.0766949 9.50817 0.0507444 9.59871 0.0507444 10.0597C0.0507444 10.4937 0.0834174 10.626 0.269769 10.9464C0.856583 11.9554 2.66025 12.8073 5.06078 13.2093C6.34653 13.4246 9.1494 13.4457 10.0984 13.2473C11.1827 13.0206 12.2233 12.7407 12.7283 12.5399C13.7244 12.1439 14.665 11.3981 14.9721 10.7608C15.4025 9.8675 14.8486 8.78599 13.5759 8.03473C12.6748 7.50274 10.8565 7.00572 9.23101 6.84707C8.47808 6.77352 6.37392 6.75775 5.90587 6.82204ZM19.7847 10.2698C19.1052 10.7694 17.9729 11.2662 16.7668 11.594L16.4234 11.6874V12.9786C16.4234 14.0573 16.4407 14.2697 16.5286 14.2697C16.739 14.2697 18.2349 13.6623 18.6941 13.3905C19.3145 13.0231 19.82 12.5335 20.0229 12.1035C20.1695 11.7926 20.1848 11.6625 20.1665 10.8799L20.1461 10.0041L19.7847 10.2698ZM0.0268178 13.6368C0.0515395 14.5373 0.0685266 14.6381 0.243096 14.9202C1.05949 16.2395 3.31617 17.1403 6.47028 17.4062C7.39691 17.4842 9.06923 17.4111 9.88158 17.2568C10.0804 17.2191 10.4056 17.1663 10.6044 17.1394C11.2409 17.0534 12.1023 16.7987 12.8453 16.4768C13.9591 15.9942 14.6632 15.4228 14.9522 14.7672C15.0958 14.4413 15.121 14.2623 15.1216 13.5617C15.122 13.1093 15.1038 12.739 15.0811 12.739C15.0584 12.739 14.9039 12.8377 14.7377 12.9584C12.4436 14.6244 7.53945 15.2439 3.77345 14.3435C2.30656 13.9928 1.31285 13.5814 0.422942 12.9564L0 12.6594L0.0268178 13.6368ZM0.0153244 17.5798C0.0159027 18.3223 0.0393957 18.4941 0.186063 18.8275C0.931327 20.522 4.802 21.6877 8.70556 21.3931C9.33994 21.3453 10.0267 21.272 10.2317 21.2302C11.5238 20.967 11.8266 20.891 12.4116 20.6835C13.7202 20.2194 14.6316 19.5533 14.9508 18.8275C15.0975 18.4941 15.121 18.3223 15.1216 17.5798C15.122 17.1063 15.1038 16.7188 15.0811 16.7188C15.0584 16.7188 14.9039 16.8175 14.7377 16.9382C13.9465 17.5128 12.7988 17.9941 11.4279 18.3262C10.4696 18.5583 8.56186 18.7852 7.56844 18.7852C6.57502 18.7852 4.66726 18.5583 3.70897 18.3262C2.33808 17.9941 1.1904 17.5128 0.399161 16.9382C0.232976 16.8175 0.0784298 16.7188 0.0558044 16.7188C0.0331067 16.7188 0.0148907 17.1063 0.0153244 17.5798Z" fill="#FFF281"/>
</g>
</g>
<defs>
<linearGradient id="paint0_linear_0_1" x1="-325" y1="-455" x2="-325" y2="625" gradientUnits="userSpaceOnUse">
<stop stop-opacity="0.6"/>
<stop offset="1" stop-opacity="0"/>
</linearGradient>
<clipPath id="clip0_0_1">
<rect width="1920" height="1080" fill="white" transform="translate(-1285 -455)"/>
</clipPath>
</defs>
</svg>
